<?xml version="1.0" encoding="iso-8859-1"?>
<!-- Uploaded to: SVG Repo, www.svgrepo.com, Generator: SVG Repo Mixer Tools -->
<svg height="800px" width="800px" version="1.1" id="Layer_1" xmlns="http://www.w3.org/2000/svg" xmlns:xlink="http://www.w3.org/1999/xlink" 
	 viewBox="0 0 512 512" xml:space="preserve">
<path style="fill:#A5A5A5;" d="M512,105.739v38.957H0v-38.957c0-24.588,19.933-44.522,44.522-44.522h422.957
	C492.066,61.217,512,81.151,512,105.739z"/>
<path style="fill:#777777;" d="M397.913,94.052v1.113c0,4.61-3.738,8.348-8.348,8.348c-4.61,0-8.348-3.738-8.348-8.348v-1.113
	c0-4.61,3.738-8.348,8.348-8.348C394.175,85.704,397.913,89.442,397.913,94.052z M422.957,85.704c-4.61,0-8.348,3.738-8.348,8.348
	v1.113c0,4.61,3.738,8.348,8.348,8.348c4.61,0,8.348-3.738,8.348-8.348v-1.113C431.304,89.442,427.567,85.704,422.957,85.704z
	 M456.348,85.704c-4.61,0-8.348,3.738-8.348,8.348v1.113c0,4.61,3.738,8.348,8.348,8.348s8.348-3.738,8.348-8.348v-1.113
	C464.696,89.442,460.958,85.704,456.348,85.704z"/>
<path style="fill:#E9F2F4;" d="M512,128v311.652c0,24.588-19.933,44.522-44.522,44.522H44.522C19.933,484.174,0,464.24,0,439.652
	V128h66.783V50.087c0-12.295,9.966-22.261,22.261-22.261h89.043c12.295,0,22.261,9.966,22.261,22.261V128H512z"/>
<path style="fill:#C3E4ED;" d="M200.348,50.087V128H66.783V50.087c0-12.295,9.966-22.261,22.261-22.261h89.043
	C190.382,27.826,200.348,37.792,200.348,50.087z"/>
<path style="fill:#B2D1D8;" d="M178.087,66.783v22.261c0,6.147-4.983,11.13-11.13,11.13h-66.783c-6.147,0-11.13-4.983-11.13-11.13
	V66.783c0-6.147,4.983-11.13,11.13-11.13h66.783C173.104,55.652,178.087,60.635,178.087,66.783z"/>
<path style="fill:#CFDFE2;" d="M456.348,289.391v122.435c0,12.295-9.966,22.261-22.261,22.261H77.913
	c-12.295,0-22.261-9.966-22.261-22.261V289.391c0-12.295,9.966-22.261,22.261-22.261h356.174
	C446.382,267.13,456.348,277.097,456.348,289.391z M77.913,222.609h100.174c12.295,0,22.261-9.966,22.261-22.261
	c0-12.295-9.966-22.261-22.261-22.261H77.913c-12.295,0-22.261,9.966-22.261,22.261C55.652,212.643,65.618,222.609,77.913,222.609z
	 M256,222.609h178.087c12.295,0,22.261-9.966,22.261-22.261c0-12.295-9.966-22.261-22.261-22.261H256
	c-12.295,0-22.261,9.966-22.261,22.261C233.739,212.643,243.705,222.609,256,222.609z"/>
</svg>