<?xml version="1.0" encoding="UTF-8"?>
<svg version="1.1" xmlns="http://www.w3.org/2000/svg" width="512" height="512">
<path d="M0 0 C8.65392909 6.38742385 11.71144516 15.44637042 15.5625 25.0625 C16.22124691 26.67861671 16.88118369 28.29424887 17.54223633 29.90942383 C19.25335934 34.09940716 20.94858187 38.29562571 22.6394043 42.49383545 C24.16296597 46.27132113 25.69892121 50.04374272 27.234375 53.81640625 C29.36481138 59.05548834 31.48942776 64.29687908 33.60818481 69.54069519 C37.61343368 79.45332723 41.64449637 89.35525072 45.68774414 99.25244141 C47.35723811 103.33918477 49.02281245 107.42749258 50.68530273 111.51708984 C54.81699299 121.67166249 58.97948595 131.81132687 63.22715759 141.91801453 C65.29074564 146.82946062 67.33480585 151.7489895 69.37911987 156.66848755 C70.36714813 159.03407517 71.36272147 161.39652722 72.36624146 163.75558472 C73.76882587 167.05455073 75.14466194 170.3635737 76.515625 173.67578125 C76.93333664 174.63942596 77.35104828 175.60307068 77.78141785 176.59591675 C80.95187405 184.37276334 82.12726551 192.16559779 79.5625 200.3125 C76.0464113 205.07623308 71.52010109 209.5339045 65.625 210.9375 C59.23303845 211.72571877 53.83369237 210.89695314 48.625 206.9375 C44.86053258 202.81196263 42.57293274 199.1452325 40.43359375 193.921875 C40.1616066 193.26600403 39.88961945 192.61013306 39.60939026 191.93438721 C38.75032955 189.85607772 37.90625222 187.77206431 37.0625 185.6875 C36.49381158 184.30558876 35.92415709 182.92407466 35.35351562 181.54296875 C32.39414345 174.36087074 29.50998091 167.14995227 26.625 159.9375 C2.865 160.2675 -20.895 160.5975 -45.375 160.9375 C-50.46779822 173.49922674 -50.46779822 173.49922674 -55.54589844 186.06689453 C-56.19152953 187.65158231 -56.83765575 189.23606849 -57.484375 190.8203125 C-57.80937988 191.63169678 -58.13438477 192.44308105 -58.46923828 193.27905273 C-61.74990063 201.28025085 -64.6762694 206.33580427 -72.7890625 210.0234375 C-78.5480129 212.05907858 -83.88762648 211.38252596 -89.484375 209.046875 C-93.92257817 206.44264008 -96.60251472 202.58780946 -98.75 198 C-100.51449385 189.35398015 -98.42862236 183.46825871 -95.125 175.5 C-94.64538818 174.31172607 -94.16577637 173.12345215 -93.67163086 171.89916992 C-92.25088047 168.38179276 -90.81121658 164.8723789 -89.36956787 161.36352539 C-87.5344244 156.88710425 -85.71620376 152.40379056 -83.89453125 147.921875 C-80.06052545 138.49732842 -76.21080132 129.07927233 -72.35568237 119.66334534 C-68.5142813 110.28040703 -64.68141839 100.89400345 -60.8515625 91.50634766 C-59.20597797 87.47283461 -57.55876352 83.43999332 -55.91015625 79.40771484 C-52.00177829 69.84545663 -48.10442941 60.27907399 -44.2406311 50.69869995 C-42.4165815 46.17763845 -40.58704513 41.65880654 -38.75708008 37.14013672 C-37.88681959 34.98678541 -37.01924473 32.83234651 -36.15454102 30.67675781 C-34.95488092 27.68665495 -33.74598872 24.70043644 -32.53515625 21.71484375 C-32.18703384 20.84000839 -31.83891144 19.96517303 -31.48023987 19.06382751 C-28.38871365 11.48663724 -25.16374037 3.94313027 -17.75390625 -0.21875 C-11.93322778 -2.28322709 -5.8121007 -1.82973541 0 0 Z M-9.375 71.9375 C-13.98795684 80.48281348 -17.54660305 89.44806325 -21.16088867 98.44506836 C-22.19838843 101.02709809 -23.24226696 103.60648077 -24.28710938 106.18554688 C-24.94828435 107.82276823 -25.60910503 109.46013272 -26.26953125 111.09765625 C-26.58195267 111.87045425 -26.89437408 112.64325226 -27.21626282 113.43946838 C-28.71471519 116.59571467 -28.71471519 116.59571467 -29.375 119.9375 C-16.175 119.9375 -2.975 119.9375 10.625 119.9375 C8.37104387 113.05614765 8.37104387 113.05614765 5.81567383 106.33569336 C5.49556839 105.55556381 5.17546295 104.77543427 4.84565735 103.97166443 C4.51116074 103.1650386 4.17666412 102.35841278 3.83203125 101.52734375 C3.48113937 100.67443253 3.1302475 99.8215213 2.76872253 98.94276428 C1.66112316 96.25234205 0.5493885 93.56365206 -0.5625 90.875 C-1.319937 89.03722291 -2.07710101 87.19933329 -2.83398438 85.36132812 C-4.677839 80.8854127 -6.5254011 76.41104457 -8.375 71.9375 C-8.705 71.9375 -9.035 71.9375 -9.375 71.9375 Z " fill="#000000" transform="translate(188.375,84.0625)"/>
<path d="M0 0 C0.68191406 0.32613281 1.36382812 0.65226563 2.06640625 0.98828125 C3.38912601 1.63583083 4.69754774 2.31259464 6 3 C6.20625 2.443125 6.4125 1.88625 6.625 1.3125 C9.08128425 -2.81852351 12.53684156 -5.26842078 16.75 -7.375 C22.58865858 -8.49781896 28.44949629 -8.0916307 33.8125 -5.375 C38.6062533 -1.80318382 41.79451791 2.08319305 43 8 C43.0932885 9.69699621 43.13478033 11.39719172 43.14044189 13.09674072 C43.14615204 14.12561905 43.15186218 15.15449738 43.15774536 16.21455383 C43.15942215 17.8993409 43.15942215 17.8993409 43.16113281 19.61816406 C43.16609772 20.80558701 43.17106262 21.99300995 43.17617798 23.21641541 C43.18827456 26.47074996 43.19574179 29.72504862 43.20018864 32.97940159 C43.20312419 35.0150664 43.20722994 37.05072564 43.21169281 39.08638763 C43.22536154 45.4626536 43.23503084 51.83890676 43.2388947 58.21518636 C43.2433719 65.56221313 43.26090655 72.90905353 43.2898953 80.25602365 C43.31155353 85.94365956 43.32160121 91.63124321 43.32293582 97.3189199 C43.32398103 100.71179361 43.32982782 104.10449199 43.34775543 107.49732208 C43.36483421 111.28644372 43.36293076 115.07511316 43.35644531 118.86425781 C43.3656601 119.97935226 43.37487488 121.09444672 43.3843689 122.24333191 C43.3471333 129.19787101 42.89162985 135.37321001 38.38671875 141.0234375 C33.03511432 145.28011597 28.28027434 147.57293046 21.21875 147.3828125 C14.22854081 146.17675528 9.12445478 142.62855642 5 137 C4.20078125 137.39832031 3.4015625 137.79664063 2.578125 138.20703125 C-17.71752738 147.99753962 -39.42619611 150.03198582 -60.92578125 142.7109375 C-68.71452314 139.87468733 -75.55267262 136.25738441 -82 131 C-82.83015625 130.33226562 -83.6603125 129.66453125 -84.515625 128.9765625 C-99.93498324 115.87483786 -108.77552397 98.63416856 -111.75 78.75 C-111.8325 77.5125 -111.915 76.275 -112 75 C-112.0515625 74.23300781 -112.103125 73.46601563 -112.15625 72.67578125 C-112.62303294 59.66420693 -109.87157876 46.59877443 -104 35 C-103.50757813 34.01644531 -103.01515625 33.03289062 -102.5078125 32.01953125 C-92.72091746 13.92079952 -76.46017079 1.11871165 -56.796875 -4.99609375 C-37.46021935 -10.07318047 -18.04594348 -8.80915725 0 0 Z M-63 44 C-70.51060989 52.93667506 -72.62106896 61.72629324 -72.34375 73.28125 C-71.38407146 83.66322693 -66.68528638 91.70476445 -59.12109375 98.75 C-51.13356799 105.20456627 -41.66979697 108.54453241 -31.4140625 107.81640625 C-21.79149294 106.47917237 -12.17193992 102.39199805 -5.53125 95.1328125 C2.10898969 84.49105007 4.29733584 73.80173769 3 61 C0.44146724 50.37132886 -5.89304174 42.34566896 -15.0625 36.5625 C-31.28322382 27.08916546 -50.14910769 31.28438024 -63 44 Z " fill="#000000" transform="translate(380,148)"/>
<path d="M0 0 C1.09780875 -0.00538554 2.1956175 -0.01077108 3.32669318 -0.01631981 C7.01239329 -0.03064935 10.69773679 -0.02348312 14.38345337 -0.01637268 C17.02305746 -0.02207366 19.66263578 -0.02893601 22.30223083 -0.03717041 C28.73220946 -0.05436939 35.16209041 -0.05519609 41.59208606 -0.04995751 C46.81884327 -0.04591628 52.0455716 -0.0473588 57.27232742 -0.05270576 C58.38813792 -0.0538284 58.38813792 -0.0538284 59.52649004 -0.05497371 C61.03767526 -0.05650519 62.54886047 -0.05804354 64.06004567 -0.05958868 C78.23308187 -0.07331792 92.40606288 -0.06787326 106.57909782 -0.05640347 C119.54272472 -0.04647266 132.50620887 -0.05940832 145.46981375 -0.08333766 C158.7826968 -0.10772643 172.09551335 -0.11733696 185.4084183 -0.11068493 C192.88184232 -0.10719195 200.35515656 -0.10942983 207.82856369 -0.12693596 C214.19119977 -0.14165528 220.5536488 -0.14229715 226.91628121 -0.12486505 C230.16179633 -0.11634984 233.40690833 -0.11638411 236.65241814 -0.1295166 C240.17297363 -0.14267513 243.69261871 -0.13122311 247.21313477 -0.11352539 C248.74743167 -0.1279329 248.74743167 -0.1279329 250.31272447 -0.14263147 C257.30205375 -0.07026495 261.70456702 1.1514593 266.97573853 5.9853363 C271.96402327 12.43570451 272.02390309 18.43711462 271.23355103 26.38768005 C269.59006623 31.66192462 266.55763715 34.52098602 261.73643684 37.06758881 C256.09662432 39.75984614 251.23795665 40.08701933 245.06237793 40.00914001 C243.98142038 40.01552884 242.90046284 40.02191766 241.78674901 40.02850008 C238.18774038 40.04368272 234.58984444 40.02333213 230.99087524 40.00291443 C228.40142453 40.00641757 225.81197596 40.01207832 223.22253418 40.01972961 C216.93385252 40.03421174 210.64549515 40.02206801 204.35684429 40.00061637 C197.02700627 39.97653592 189.69724144 39.97832501 182.36737265 39.98092228 C169.28672827 39.98460753 156.20623615 39.96382815 143.12564087 39.92967224 C130.44396112 39.89657047 117.76244108 39.88241682 105.08071899 39.88865662 C91.25520572 39.89542578 77.42975922 39.89294652 63.6042558 39.87329721 C62.50695611 39.87173799 62.50695611 39.87173799 61.38748876 39.87014726 C59.91842433 39.86805644 58.44935993 39.86594546 56.98029556 39.86381409 C51.87534556 39.85692928 46.77041617 39.85624736 41.66546249 39.85769653 C34.79204704 39.85928932 27.91882568 39.84435154 21.04545975 39.81847 C18.52355626 39.81131011 16.00163248 39.80922371 13.47972107 39.81258774 C10.03652639 39.81630453 6.59388745 39.80154714 3.15075684 39.78208923 C2.15367041 39.78741716 1.15658399 39.79274508 0.12928283 39.79823446 C-6.4850082 39.73377924 -12.43115572 39.04690035 -17.78988647 34.7743988 C-22.16502631 29.27386173 -24.23748005 24.64207276 -24.01644897 17.40330505 C-23.13092365 10.26375714 -19.11568108 6.10653918 -13.77528954 1.77128506 C-9.23683548 -0.31570746 -4.93879894 -0.02889288 0 0 Z " fill="#000000" transform="translate(112.76644897460938,319.61231994628906)"/>
<path d="M0 0 C4.50007979 3.85721125 8.1815268 7.98230275 8.99609375 13.984375 C9.01800781 14.97953125 9.03992188 15.9746875 9.0625 17 C9.10246094 17.98484375 9.14242187 18.9696875 9.18359375 19.984375 C7.71418191 28.57478269 0.64058678 34.66585853 -5.29272461 40.5559082 C-6.18114548 41.44958603 -7.06956635 42.34326385 -7.98490906 43.26402283 C-10.40360989 45.69630478 -12.83158809 48.11911621 -15.26185679 50.53983331 C-17.81267742 53.08301401 -20.35612005 55.63355711 -22.90077209 58.1829071 C-27.17155393 62.45913195 -31.44858869 66.72902586 -35.72924805 70.99536133 C-40.6706175 75.92038617 -45.60105891 80.85615321 -50.52600473 85.79759723 C-54.76607244 90.05129638 -59.01198017 94.29909971 -63.26278883 98.54206532 C-65.79678233 101.07139412 -68.32873455 103.60267693 -70.85542107 106.13930702 C-73.67100677 108.96520013 -76.49879394 111.77868483 -79.32788086 114.59106445 C-80.15872192 115.42797821 -80.98956299 116.26489197 -81.84558105 117.12716675 C-87.438368 122.65891571 -92.04637151 126.66295885 -100.25 126.75 C-101.70019531 126.79640625 -101.70019531 126.79640625 -103.1796875 126.84375 C-112.43232932 125.12443269 -118.98898913 117.07867067 -125.33203125 110.69140625 C-126.36672561 109.6587371 -127.40186459 108.62651327 -128.43742371 107.5947113 C-130.59461593 105.44191742 -132.74635112 103.28385429 -134.89428711 101.12182617 C-137.63890934 98.36007045 -140.39684213 95.61206275 -143.15898609 92.86784458 C-145.29461291 90.74308636 -147.42300876 88.61120003 -149.54932213 86.47712517 C-150.56335413 85.4611019 -151.57959179 84.44727475 -152.59812355 83.43576241 C-154.02167446 82.01988098 -155.43452039 80.59326149 -156.84692383 79.16625977 C-157.65108231 78.35971451 -158.45524078 77.55316925 -159.2837677 76.72218323 C-164.20170159 70.90837015 -164.99278541 65.85252259 -164.7734375 58.4453125 C-164.17880059 53.6765577 -162.87401587 50.56897703 -159.375 47.25 C-153.56709866 43.18546527 -148.40802309 41.34251315 -141.375 42.25 C-134.4117507 44.24383211 -130.56707224 47.37479392 -125.59375 52.54296875 C-124.89479614 53.24899734 -124.19584229 53.95502594 -123.47570801 54.68244934 C-121.26337367 56.92259434 -119.06914151 59.1795473 -116.875 61.4375 C-115.37095745 62.96664231 -113.86576019 64.49464978 -112.359375 66.02148438 C-108.68445491 69.75129682 -105.02420945 73.49503791 -101.375 77.25 C-98.44392503 75.92766838 -96.38248927 74.50206662 -94.12503052 72.22035217 C-93.50555542 71.59929092 -92.88608032 70.97822968 -92.24783325 70.33834839 C-91.57968597 69.65829742 -90.9115387 68.97824646 -90.22314453 68.27758789 C-89.15407867 67.2017318 -89.15407867 67.2017318 -88.06341553 66.10414124 C-86.517076 64.54684685 -84.97301695 62.98728545 -83.43097305 61.42573738 C-80.98930283 58.95391802 -78.54102668 56.48882336 -76.09078979 54.02549744 C-69.12570921 47.02065375 -62.17334142 40.00324052 -55.22412109 32.98266602 C-50.97239414 28.68820911 -46.71337046 24.40109738 -42.44997787 20.11822319 C-40.82757671 18.48525816 -39.20809715 16.849385 -37.59161758 15.21055794 C-35.32973996 12.91746287 -33.0587733 10.63374116 -30.78564453 8.35180664 C-30.12154572 7.67377991 -29.4574469 6.99575317 -28.77322388 6.29718018 C-20.58408071 -1.8758016 -10.87290232 -5.6378012 0 0 Z " fill="#000000" transform="translate(452.375,334.75)"/>
<path d="M0 0 C1.18315292 -0.00990463 2.36630585 -0.01980927 3.58531189 -0.03001404 C4.87479233 -0.02551239 6.16427277 -0.02101074 7.49282837 -0.01637268 C8.87135877 -0.02207808 10.24988446 -0.029043 11.62840271 -0.03717041 C15.36612897 -0.05510028 19.10362044 -0.0539336 22.84137678 -0.04822803 C25.96504262 -0.04513531 29.08866341 -0.05122968 32.21232283 -0.05726677 C39.58402041 -0.07131038 46.9556021 -0.06975266 54.32730103 -0.05836487 C61.92376125 -0.04688892 69.51986821 -0.06095067 77.11628187 -0.08776134 C83.64555034 -0.10994 90.1747081 -0.11655071 96.70401156 -0.11068493 C100.60043268 -0.10731867 104.49662748 -0.10970791 108.39301682 -0.12693596 C112.05887047 -0.14243731 115.72420235 -0.13841484 119.39003563 -0.11963081 C121.36985975 -0.11420534 123.34970747 -0.12843555 125.32948303 -0.14332581 C133.14297645 -0.07868966 137.94829215 0.58688352 143.83511353 5.9853363 C148.82339827 12.43570451 148.88327809 18.43711462 148.09292603 26.38768005 C146.47541332 31.57857543 143.46340998 34.50531103 138.74090576 37.06797791 C132.40799361 40.08856872 126.51531673 40.07789625 119.60025024 40.00291443 C118.28515472 40.00846344 116.9700592 40.01401245 115.6151123 40.01972961 C112.03648494 40.03387575 108.45863536 40.01701942 104.88008261 39.99344444 C101.12023429 39.97321022 97.36041433 39.97922135 93.6005249 39.98155212 C87.29105942 39.9814987 80.98189488 39.96182784 74.67251587 39.92967224 C67.39353333 39.89275381 60.11494412 39.88400266 52.83588016 39.89096975 C45.81030371 39.89728877 38.78486109 39.8864967 31.75931168 39.86700439 C28.7794414 39.85886182 25.79963982 39.856115 22.81975937 39.85769653 C18.6552443 39.85874386 14.49124107 39.83449355 10.32681274 39.80760193 C9.09958496 39.81053253 7.87235718 39.81346313 6.60794067 39.81648254 C-0.61304701 39.74464556 -7.05621932 39.45795607 -12.93051147 34.7743988 C-17.30565131 29.27386173 -19.37810505 24.64207276 -19.15707397 17.40330505 C-18.40245681 11.31920416 -15.44767103 7.27962039 -10.90707397 3.38768005 C-7.13147588 0.72833252 -4.60169975 0.01089742 0 0 Z " fill="#000000" transform="translate(107.90707397460938,383.61231994628906)"/>
</svg>
