<?xml version="1.0" encoding="UTF-8"?>
<svg version="1.1" xmlns="http://www.w3.org/2000/svg" width="600" height="600">
<path d="M0 0 C1.49848694 0.65412935 2.99717721 1.30779316 4.49609375 1.9609375 C38.85324211 17.2333799 71.1452603 43.15298854 94 73 C94.41958984 73.54317871 94.83917969 74.08635742 95.27148438 74.64599609 C102.95325038 84.64070259 109.65847081 95.11266177 116 106 C116.35658691 106.60183105 116.71317383 107.20366211 117.08056641 107.82373047 C149.26419318 162.57198685 155.34229614 232.58738441 139.81860352 293.50411987 C136.32867007 306.83611178 131.66583968 319.45712628 126 332 C125.34587065 333.49848694 124.69220684 334.99717721 124.0390625 336.49609375 C108.7666201 370.85324211 82.84701146 403.1452603 53 426 C52.45682129 426.41958984 51.91364258 426.83917969 51.35400391 427.27148438 C41.35929741 434.95325038 30.88733823 441.65847081 20 448 C19.39816895 448.35658691 18.79633789 448.71317383 18.17626953 449.08056641 C-36.57198685 481.26419318 -106.58738441 487.34229614 -167.50411987 471.81860352 C-180.83611178 468.32867007 -193.45712628 463.66583968 -206 458 C-207.49848694 457.34587065 -208.99717721 456.69220684 -210.49609375 456.0390625 C-244.85324211 440.7666201 -277.1452603 414.84701146 -300 385 C-300.41958984 384.45682129 -300.83917969 383.91364258 -301.27148438 383.35400391 C-308.95325038 373.35929741 -315.65847081 362.88733823 -322 352 C-322.35658691 351.39816895 -322.71317383 350.79633789 -323.08056641 350.17626953 C-355.26419318 295.42801315 -361.34229614 225.41261559 -345.81860352 164.49588013 C-342.32867007 151.16388822 -337.66583968 138.54287372 -332 126 C-331.34587065 124.50151306 -330.69220684 123.00282279 -330.0390625 121.50390625 C-314.7666201 87.14675789 -288.84701146 54.8547397 -259 32 C-258.45682129 31.58041016 -257.91364258 31.16082031 -257.35400391 30.72851562 C-247.35929741 23.04674962 -236.88733823 16.34152919 -226 10 C-225.39816895 9.64341309 -224.79633789 9.28682617 -224.17626953 8.91943359 C-157.69406233 -30.16196708 -69.50332398 -31.3958906 0 0 Z " fill="#A86BE1" transform="translate(403,71)"/>
<path d="M0 0 C28.05 0 56.1 0 85 0 C85 37.29 85 74.58 85 113 C56.95 113 28.9 113 0 113 C0 75.71 0 38.42 0 0 Z " fill="#DCDBCF" transform="translate(250,198)"/>
<path d="M0 0 C1.44956169 -0.00103342 2.89912315 -0.00252329 4.34868383 -0.00452614 C12.57693305 -0.01445634 20.79346726 0.05058917 29.01687789 0.34412289 C29.75579835 0.36597904 30.49471881 0.3878352 31.2560308 0.41035366 C35.3411001 0.63034318 37.6916366 1.16995606 40.64187789 4.03162289 C41.14358687 6.25232601 41.14358687 6.25232601 41.13797164 8.81287289 C41.13861617 9.7371307 41.1392607 10.66138851 41.13992476 11.61365414 C41.1199443 12.57658382 41.09996383 13.53951351 41.07937789 14.53162289 C41.08646773 15.49455257 41.09355758 16.45748226 41.10086226 17.44959164 C41.03716699 24.47567087 41.03716699 24.47567087 39.38406539 26.80066586 C37.2313792 28.32166414 35.95467109 28.43935614 33.33328414 28.50818539 C32.50377242 28.53912289 31.6742607 28.57006039 30.81961226 28.60193539 C29.95658492 28.61998226 29.09355758 28.63802914 28.20437789 28.65662289 C26.49723929 28.70784985 24.79019701 28.76241994 23.08328414 28.82068539 C22.32732955 28.83824886 21.57137496 28.85581234 20.79251266 28.87390804 C18.60930005 28.9691185 18.60930005 28.9691185 16.42679 29.60730648 C15.837769 29.74733089 15.24874801 29.88735531 14.64187789 30.03162289 C14.31187789 29.70162289 13.98187789 29.37162289 13.64187789 29.03162289 C11.7624945 28.93182595 9.87937675 28.90081575 7.99734664 28.89881039 C6.8455693 28.89752132 5.69379195 28.89623226 4.50711226 28.89490414 C3.29345992 28.89877132 2.07980758 28.90263851 0.82937789 28.90662289 C-0.37267289 28.9027557 -1.57472367 28.89888851 -2.81320024 28.89490414 C-3.96884477 28.8961932 -5.1244893 28.89748226 -6.31515336 28.89881039 C-7.37709916 28.89993832 -8.43904496 28.90106625 -9.53317094 28.90222836 C-11.9838291 29.01447871 -14.02146982 29.32341856 -16.35812211 30.03162289 C-16.35812211 29.37162289 -16.35812211 28.71162289 -16.35812211 28.03162289 C-66.18812211 28.03162289 -116.01812211 28.03162289 -167.35812211 28.03162289 C-167.02812211 26.38162289 -166.69812211 24.73162289 -166.35812211 23.03162289 C-166.1572979 20.19915766 -166.17307375 17.37062237 -166.17062211 14.53162289 C-166.15837602 13.7852557 -166.14612992 13.03888851 -166.13351274 12.26990414 C-166.13157914 11.54158382 -166.12964555 10.81326351 -166.12765336 10.06287289 C-166.12354447 9.40867367 -166.11943559 8.75447445 -166.11520219 8.08045101 C-166.41982633 5.51119896 -167.36975084 3.41213043 -168.35812211 1.03162289 C-149.12699711 0.89982954 -129.89586336 0.76938901 -110.66471887 0.64047146 C-101.73129818 0.58055547 -92.79788065 0.52022995 -83.86446977 0.45886898 C-76.05969894 0.40526143 -68.2549229 0.35249482 -60.45014012 0.30065584 C-56.33433061 0.27329164 -52.21852444 0.24556254 -48.10272431 0.21681881 C-32.06856363 0.10512819 -16.03459093 0.01129632 0 0 Z " fill="#DD9E3D" transform="translate(367.3581221103668,395.9683771133423)"/>
<path d="M0 0 C1.8008329 0.00213753 1.8008329 0.00213753 3.63804626 0.00431824 C4.29997482 0.00241989 4.96190338 0.00052155 5.64389038 -0.00143433 C7.83599113 -0.00514486 10.02776198 0.00556479 12.21983337 0.01676941 C13.73915569 0.01796105 15.25847875 0.0184144 16.77780151 0.01815796 C19.96303412 0.01972324 23.14815441 0.02801699 26.33335876 0.04142761 C30.42489422 0.05843198 34.51630631 0.06224158 38.60787296 0.06148243 C41.74502754 0.06175377 44.88215491 0.06722896 48.01930046 0.07448387 C49.52844982 0.0776752 51.03760228 0.07963903 52.54675484 0.08037758 C54.65145799 0.08253544 56.7560278 0.09126706 58.86070251 0.10197449 C60.66034203 0.10769218 60.66034203 0.10769218 62.49633789 0.11352539 C65.18467712 0.24723816 65.18467712 0.24723816 66.18467712 1.24723816 C66.29816873 4.10818033 66.34886204 6.94407271 66.35264587 9.80583191 C66.35763847 11.0950631 66.35763847 11.0950631 66.36273193 12.41033936 C66.36780483 14.23202477 66.37014015 16.05371952 66.36997986 17.87541199 C66.37216515 20.66943106 66.39031357 23.46305473 66.4092865 26.25700378 C66.41222053 28.02327847 66.41420526 29.78955504 66.41514587 31.55583191 C66.42233139 32.39544968 66.42951691 33.23506744 66.43692017 34.10012817 C66.41349894 40.01841635 66.41349894 40.01841635 64.18467712 42.24723816 C61.41404724 42.50120544 61.41404724 42.50120544 57.838974 42.50602722 C57.1884053 42.50953186 56.53783661 42.5130365 55.86755371 42.51664734 C53.71273695 42.52546445 51.55824734 42.51961579 49.40342712 42.51286316 C47.90891965 42.51420982 46.41441259 42.51615036 44.91990662 42.5186615 C41.7859531 42.52161273 38.6521135 42.51731523 35.51817322 42.50798035 C31.49617699 42.49658573 27.47444767 42.50314522 23.45246124 42.51512527 C20.36586996 42.52234396 17.2793422 42.52005593 14.19274902 42.51486969 C12.70954354 42.51353321 11.22633234 42.51518085 9.74313354 42.5198288 C7.67205981 42.52489427 5.60142146 42.517184 3.53038025 42.50602722 C2.35060608 42.50443604 1.17083191 42.50284485 -0.04469299 42.50120544 C-2.81532288 42.24723816 -2.81532288 42.24723816 -4.81532288 40.24723816 C-5.01522515 37.40183674 -5.09509263 34.65586032 -5.08094788 31.80973816 C-5.08286133 30.97386169 -5.08477478 30.13798523 -5.08674622 29.27677917 C-5.08810823 27.50814005 -5.08441064 25.73949093 -5.07606506 23.97087097 C-5.06536563 21.25807822 -5.07595964 18.54594772 -5.08876038 15.83317566 C-5.08743878 14.11702836 -5.0848764 12.40088147 -5.08094788 10.68473816 C-5.08499634 9.87013123 -5.0890448 9.05552429 -5.09321594 8.2162323 C-5.0282264 0.4415726 -5.0282264 0.4415726 0 0 Z " fill="#181817" transform="translate(261.81532287597656,233.7527618408203)"/>
<path d="M0 0 C29.04 0 58.08 0 88 0 C88 38.61 88 77.22 88 117 C85.36 117 82.72 117 80 117 C80 119.31 80 121.62 80 124 C50.63 124 21.26 124 -9 124 C-9 85.72 -9 47.44 -9 8 C-6.03 8 -3.06 8 0 8 C0 5.36 0 2.72 0 0 Z M2 2 C2 39.29 2 76.58 2 115 C30.05 115 58.1 115 87 115 C87 77.71 87 40.42 87 2 C58.95 2 30.9 2 2 2 Z " fill="#DD9E3D" transform="translate(248,196)"/>
<path d="M0 0 C1.44956169 -0.00103342 2.89912315 -0.00252329 4.34868383 -0.00452614 C12.57693305 -0.01445634 20.79346726 0.05058917 29.01687789 0.34412289 C29.75579835 0.36597904 30.49471881 0.3878352 31.2560308 0.41035366 C35.3411001 0.63034318 37.6916366 1.16995606 40.64187789 4.03162289 C41.14358687 6.25232601 41.14358687 6.25232601 41.13797164 8.81287289 C41.13861617 9.7371307 41.1392607 10.66138851 41.13992476 11.61365414 C41.1199443 12.57658382 41.09996383 13.53951351 41.07937789 14.53162289 C41.08646773 15.49455257 41.09355758 16.45748226 41.10086226 17.44959164 C41.03716699 24.47567087 41.03716699 24.47567087 39.38406539 26.80066586 C37.2313792 28.32166414 35.95467109 28.43935614 33.33328414 28.50818539 C32.50377242 28.53912289 31.6742607 28.57006039 30.81961226 28.60193539 C29.95658492 28.61998226 29.09355758 28.63802914 28.20437789 28.65662289 C26.49723929 28.70784985 24.79019701 28.76241994 23.08328414 28.82068539 C22.32732955 28.83824886 21.57137496 28.85581234 20.79251266 28.87390804 C18.60930005 28.9691185 18.60930005 28.9691185 16.42679 29.60730648 C15.837769 29.74733089 15.24874801 29.88735531 14.64187789 30.03162289 C14.31187789 29.70162289 13.98187789 29.37162289 13.64187789 29.03162289 C11.7624945 28.93182595 9.87937675 28.90081575 7.99734664 28.89881039 C6.8455693 28.89752132 5.69379195 28.89623226 4.50711226 28.89490414 C3.29345992 28.89877132 2.07980758 28.90263851 0.82937789 28.90662289 C-0.37267289 28.9027557 -1.57472367 28.89888851 -2.81320024 28.89490414 C-3.96884477 28.8961932 -5.1244893 28.89748226 -6.31515336 28.89881039 C-7.37709916 28.89993832 -8.43904496 28.90106625 -9.53317094 28.90222836 C-11.9838291 29.01447871 -14.02146982 29.32341856 -16.35812211 30.03162289 C-16.48312211 23.40662289 -16.48312211 23.40662289 -15.35812211 20.03162289 C-15.23878108 18.26371037 -15.18287587 16.49101645 -15.17062211 14.71912289 C-15.15644242 13.79486507 -15.14226274 12.87060726 -15.12765336 11.91834164 C-15.28938387 8.43875643 -15.28938387 8.43875643 -17.35812211 3.03162289 C-92.10312211 2.53662289 -92.10312211 2.53662289 -168.35812211 2.03162289 C-168.35812211 1.70162289 -168.35812211 1.37162289 -168.35812211 1.03162289 C-149.12699711 0.89982954 -129.89586336 0.76938901 -110.66471887 0.64047146 C-101.73129818 0.58055547 -92.79788065 0.52022995 -83.86446977 0.45886898 C-76.05969894 0.40526143 -68.2549229 0.35249482 -60.45014012 0.30065584 C-56.33433061 0.27329164 -52.21852444 0.24556254 -48.10272431 0.21681881 C-32.06856363 0.10512819 -16.03459093 0.01129632 0 0 Z " fill="#7B8D88" transform="translate(367.3581221103668,395.9683771133423)"/>
<path d="M0 0 C22.11 0 44.22 0 67 0 C67 12.54 67 25.08 67 38 C66.01 38 65.02 38 64 38 C64 27.44 64 16.88 64 6 C60.7 6 57.4 6 54 6 C54 16.56 54 27.12 54 38 C53.01 38 52.02 38 51 38 C51 30.74 51 23.48 51 16 C48.03 16 45.06 16 42 16 C42 23.26 42 30.52 42 38 C40.68 38 39.36 38 38 38 C38 28.76 38 19.52 38 10 C35.03 10 32.06 10 29 10 C29 19.24 29 28.48 29 38 C28.01 38 27.02 38 26 38 C26 32.06 26 26.12 26 20 C22.7 20 19.4 20 16 20 C16 25.94 16 31.88 16 38 C15.01 38 14.02 38 13 38 C13 30.74 13 23.48 13 16 C10.03 16 7.06 16 4 16 C4 23.26 4 30.52 4 38 C2.68 38 1.36 38 0 38 C0 25.46 0 12.92 0 0 Z " fill="#EFEDE0" transform="translate(259,236)"/>
<path d="M0 0 C3.66864538 2.68437467 6.50666083 5.76332166 8.5625 9.875 C9.88722262 26.24478669 9.88722262 26.24478669 5.08203125 33.16796875 C1.25345349 37.46896742 -1.38566808 38.61908719 -6.9765625 39.31640625 C-18.2577381 39.83930098 -18.2577381 39.83930098 -22.6875 36.375 C-27.65385449 30.91073337 -29.04873412 24.6500379 -28.78125 17.39453125 C-27.79989134 10.20161835 -24.66481313 5.40301905 -19.0234375 0.96875 C-13.66861222 -2.72423295 -5.94679195 -1.94622282 0 0 Z " fill="#F4EFE6" transform="translate(382.4375,339.125)"/>
<path d="M0 0 C29.04 0 58.08 0 88 0 C88 38.61 88 77.22 88 117 C85.36 117 82.72 117 80 117 C80 119.31 80 121.62 80 124 C50.63 124 21.26 124 -9 124 C-9 85.72 -9 47.44 -9 8 C-6.03 8 -3.06 8 0 8 C0 5.36 0 2.72 0 0 Z M2 2 C2 39.29 2 76.58 2 115 C30.05 115 58.1 115 87 115 C87 77.71 87 40.42 87 2 C58.95 2 30.9 2 2 2 Z M-7 9 C-7 46.29 -7 83.58 -7 122 C21.05 122 49.1 122 78 122 C78 120.35 78 118.7 78 117 C52.26 117 26.52 117 0 117 C0 81.36 0 45.72 0 9 C-2.31 9 -4.62 9 -7 9 Z " fill="#171006" transform="translate(248,196)"/>
<path d="M0 0 C0.78246094 -0.01417969 1.56492187 -0.02835937 2.37109375 -0.04296875 C4.5625 0.1875 4.5625 0.1875 7.5625 2.1875 C7.85476374 4.76593698 7.95873061 7.1007744 7.92578125 9.6796875 C7.92652901 10.79321091 7.92652901 10.79321091 7.92729187 11.92922974 C7.92494967 13.50118685 7.91521246 15.07314759 7.89868164 16.64501953 C7.87515927 19.0462418 7.87811039 21.4463486 7.88476562 23.84765625 C7.87918638 25.3750066 7.87207495 26.90235228 7.86328125 28.4296875 C7.86464836 29.50487137 7.86464836 29.50487137 7.86604309 30.60177612 C7.81393758 34.28582556 7.59110437 37.0549997 5.5625 40.1875 C0.25322575 40.62268641 0.25322575 40.62268641 -2.4375 40.1875 C-4.89071644 37.35096849 -5.4375 35.93626504 -5.4375 32.1875 C-4.4475 32.1875 -3.4575 32.1875 -2.4375 32.1875 C-2.7675 26.5775 -3.0975 20.9675 -3.4375 15.1875 C-4.8915625 17.8790625 -4.8915625 17.8790625 -6.375 20.625 C-9.3125 26.0625 -9.3125 26.0625 -10.4375 27.1875 C-12.6875 27.625 -12.6875 27.625 -15.4375 27.1875 C-19.23986832 23.47355885 -21.07415947 20.39298201 -22.4375 15.1875 C-23.66704622 17.64659245 -23.62675376 19.41225805 -23.71875 22.16015625 C-23.75613281 23.14177734 -23.79351562 24.12339844 -23.83203125 25.13476562 C-23.90247585 27.21549032 -23.97278785 29.29621952 -24.04296875 31.37695312 C-24.08035156 32.35728516 -24.11773437 33.33761719 -24.15625 34.34765625 C-24.18654297 35.25136963 -24.21683594 36.15508301 -24.24804688 37.08618164 C-24.4375 39.1875 -24.4375 39.1875 -25.4375 40.1875 C-28.375 40.375 -28.375 40.375 -31.4375 40.1875 C-33.4375 38.1875 -33.4375 38.1875 -33.66455078 34.56396484 C-33.66423357 33.00875311 -33.65290299 31.45351949 -33.6328125 29.8984375 C-33.6299826 29.08001373 -33.62715271 28.26158997 -33.62423706 27.41836548 C-33.61302532 24.79959607 -33.58791929 22.18116636 -33.5625 19.5625 C-33.55247147 17.78906743 -33.5433454 16.01562951 -33.53515625 14.2421875 C-33.51308278 9.89049374 -33.47854644 5.5390545 -33.4375 1.1875 C-23.57840909 1.02386364 -23.57840909 1.02386364 -18.4375 4.1875 C-15.95172951 7.70717503 -14.4375 10.85591783 -14.4375 15.1875 C-13.7775 15.1875 -13.1175 15.1875 -12.4375 15.1875 C-12.19 14.3625 -11.9425 13.5375 -11.6875 12.6875 C-7.17729532 0.05892689 -7.17729532 0.05892689 0 0 Z " fill="#F3EFE6" transform="translate(327.4375,337.8125)"/>
<path d="M0 0 C3.61035491 2.70776618 4.82973184 3.95947237 5.5625 8.4375 C4.90620413 12.59404053 3.64141801 14.75482931 1 18 C0.01 18.66 -0.98 19.32 -2 20 C-0.66338822 22.95087721 0.84953886 25.08317034 3.0625 27.4375 C5.4838381 30.1962862 7 32.17758437 7 36 C5 38 5 38 2.1875 38.375 C-1.9101361 37.89292517 -3.11654893 36.95553735 -6 34 C-7.56446305 31.71222676 -9.04726202 29.40041071 -10.47265625 27.0234375 C-12.07112844 24.59405648 -12.07112844 24.59405648 -16 23 C-16 27.29 -16 31.58 -16 36 C-17.98 36.66 -19.96 37.32 -22 38 C-22.99 37.34 -23.98 36.68 -25 36 C-25.33771517 33.16975238 -25.48903335 30.54756033 -25.51171875 27.7109375 C-25.52966995 26.89251373 -25.54762115 26.07408997 -25.56611633 25.23086548 C-25.62037514 22.61229636 -25.65416404 19.99391106 -25.6875 17.375 C-25.72065943 15.60153683 -25.75514779 13.82809796 -25.79101562 12.0546875 C-25.87611019 7.70325736 -25.9428464 3.35188321 -26 -1 C-24.41992148 -1.32995424 -22.83903015 -1.65601742 -21.2578125 -1.98046875 C-20.37754395 -2.16246826 -19.49727539 -2.34446777 -18.59033203 -2.53198242 C-11.89359112 -3.74194023 -6.05488616 -3.21464105 0 0 Z " fill="#F3F0E7" transform="translate(221,341)"/>
<path d="M0 0 C1.94519531 -0.03867187 1.94519531 -0.03867187 3.9296875 -0.078125 C5.51136719 0.08429688 5.51136719 0.08429688 7.125 0.25 C9.125 3.25 9.125 3.25 9.125 8.25 C3.515 8.91 -2.095 9.57 -7.875 10.25 C-8.205 12.23 -8.535 14.21 -8.875 16.25 C-8.215 15.92 -7.555 15.59 -6.875 15.25 C-4.54490544 15.10151358 -2.2096445 15.02870465 0.125 15 C1.383125 14.97421875 2.64125 14.9484375 3.9375 14.921875 C4.989375 15.03015625 6.04125 15.1384375 7.125 15.25 C8.115 16.735 8.115 16.735 9.125 18.25 C8.795 19.9 8.465 21.55 8.125 23.25 C2.185 23.58 -3.755 23.91 -9.875 24.25 C-9.875 26.56 -9.875 28.87 -9.875 31.25 C-7.96074219 31.19779297 -7.96074219 31.19779297 -6.0078125 31.14453125 C-4.33855479 31.11639769 -2.6692829 31.08909707 -1 31.0625 C-0.15824219 31.03736328 0.68351562 31.01222656 1.55078125 30.98632812 C2.35644531 30.97666016 3.16210938 30.96699219 3.9921875 30.95703125 C4.73581543 30.9413208 5.47944336 30.92561035 6.24560547 30.90942383 C6.86580566 31.02181396 7.48600586 31.1342041 8.125 31.25 C10.2769437 34.47791555 10.32586443 35.53400809 10.125 39.25 C4.30270529 40.25494402 -1.34879638 40.40062028 -7.25 40.375 C-8.16394531 40.37886719 -9.07789063 40.38273437 -10.01953125 40.38671875 C-11.32083984 40.38478516 -11.32083984 40.38478516 -12.6484375 40.3828125 C-13.43653809 40.38168457 -14.22463867 40.38055664 -15.03662109 40.37939453 C-16.875 40.25 -16.875 40.25 -17.875 39.25 C-18.03510481 36.51298822 -18.13446828 33.7983241 -18.19140625 31.05859375 C-18.21218735 30.23875504 -18.23296844 29.41891632 -18.25437927 28.57423401 C-18.31996494 25.94541099 -18.37880126 23.31648496 -18.4375 20.6875 C-18.48067667 18.90949439 -18.52429067 17.13149935 -18.56835938 15.35351562 C-18.67565543 10.98578366 -18.77689704 6.61794773 -18.875 2.25 C-12.73443797 0.20314599 -6.42432861 0.11084337 0 0 Z " fill="#F3F0E6" transform="translate(264.875,337.75)"/>
<path d="M0 0 C0.97585304 -0.00525696 0.97585304 -0.00525696 1.97142029 -0.01062012 C4.12623705 -0.01943723 6.28072666 -0.01358856 8.43554688 -0.00683594 C9.93005435 -0.0081826 11.42456141 -0.01012314 12.91906738 -0.01263428 C16.0530209 -0.0155855 19.18686049 -0.01128801 22.32080078 -0.00195312 C26.34279701 0.0094415 30.36452633 0.00288201 34.38651276 -0.00909805 C37.47310404 -0.01631674 40.5596318 -0.0140287 43.64622498 -0.00884247 C45.12943045 -0.00750599 46.61264166 -0.00915363 48.09584045 -0.01380157 C50.16691419 -0.01886705 52.23755254 -0.01115678 54.30859375 0 C55.48836792 0.00159119 56.66814209 0.00318237 57.88366699 0.00482178 C60.65429688 0.25878906 60.65429688 0.25878906 62.65429688 2.25878906 C62.90429688 5.75878906 62.90429688 5.75878906 62.65429688 9.25878906 C59.87337802 12.03970792 58.20344462 11.51232506 54.30859375 11.51757812 C53.65802505 11.52108276 53.00745636 11.5245874 52.33717346 11.52819824 C50.1823567 11.53701536 48.02786709 11.53116669 45.87304688 11.52441406 C44.3785394 11.52576072 42.88403234 11.52770126 41.38952637 11.5302124 C38.25557285 11.53316363 35.12173326 11.52886614 31.98779297 11.51953125 C27.96579674 11.50813663 23.94406742 11.51469612 19.92208099 11.52667618 C16.83548971 11.53389486 13.74896195 11.53160683 10.66236877 11.52642059 C9.1791633 11.52508412 7.69595209 11.52673175 6.2127533 11.5313797 C4.14167956 11.53644518 2.07104121 11.5287349 0 11.51757812 C-1.17977417 11.51598694 -2.35954834 11.51439575 -3.57507324 11.51275635 C-6.34570312 11.25878906 -6.34570312 11.25878906 -8.34570312 9.25878906 C-8.59570312 5.75878906 -8.59570312 5.75878906 -8.34570312 2.25878906 C-5.56478427 -0.52212979 -3.89485087 0.00525307 0 0 Z " fill="#DF9F3D" transform="translate(265.345703125,208.7412109375)"/>
<path d="M0 0 C2.91722548 -0.08103404 5.83219516 -0.14051081 8.75 -0.1875 C9.575 -0.21263672 10.4 -0.23777344 11.25 -0.26367188 C12.04921875 -0.27333984 12.8484375 -0.28300781 13.671875 -0.29296875 C14.4050293 -0.3086792 15.13818359 -0.32438965 15.89355469 -0.34057617 C18.69630297 0.11258028 20.00886029 0.98621801 22 3 C22.50170898 5.22070312 22.50170898 5.22070312 22.49609375 7.78125 C22.49673828 8.70550781 22.49738281 9.62976563 22.49804688 10.58203125 C22.47806641 11.54496094 22.45808594 12.50789063 22.4375 13.5 C22.44458984 14.46292969 22.45167969 15.42585938 22.45898438 16.41796875 C22.39535838 23.43640566 22.39535838 23.43640566 20.75097656 25.78051758 C18.52585619 27.33022147 17.24618764 27.34723868 14.55078125 27.29296875 C13.70322266 27.28330078 12.85566406 27.27363281 11.98242188 27.26367188 C10.66081055 27.2259668 10.66081055 27.2259668 9.3125 27.1875 C8.41982422 27.17396484 7.52714844 27.16042969 6.60742188 27.14648438 C4.40433834 27.11114079 2.20247418 27.06180493 0 27 C0.16242188 26.1646875 0.32484375 25.329375 0.4921875 24.46875 C1.03456011 20.76392787 1.13260817 17.24321728 1.125 13.5 C1.12757813 12.2315625 1.13015625 10.963125 1.1328125 9.65625 C1.0123121 6.33894482 0.6326624 3.25369236 0 0 Z " fill="#C0563A" transform="translate(386,397)"/>
<path d="M0 0 C2.58876519 3.87287491 2.29590334 7.95809906 2.25 12.4375 C2.26160156 13.56381836 2.26160156 13.56381836 2.2734375 14.71289062 C2.25861907 18.92502924 1.92630285 22.15503835 0 26 C-6.96075981 23.76364019 -13.73060018 21.19657054 -20.5 18.4375 C-22.00046875 17.83905273 -22.00046875 17.83905273 -23.53125 17.22851562 C-24.48 16.84244141 -25.42875 16.45636719 -26.40625 16.05859375 C-27.26541016 15.71111084 -28.12457031 15.36362793 -29.00976562 15.00561523 C-31 14 -31 14 -32 12 C-27.9277008 10.28422691 -23.85256612 8.57543229 -19.7746582 6.87304688 C-18.38778934 6.29292721 -17.00171368 5.71090747 -15.61645508 5.12695312 C-13.625266 4.28795694 -11.63132516 3.45583338 -9.63671875 2.625 C-8.43748779 2.12226563 -7.23825684 1.61953125 -6.00268555 1.1015625 C-3 0 -3 0 0 0 Z " fill="#EEB1B6" transform="translate(200,398)"/>
<path d="M0 0 C1.80535721 0.00666183 1.80535721 0.00666183 3.64718628 0.01345825 C4.31072113 0.0131662 4.97425598 0.01287415 5.65789795 0.01257324 C7.85481772 0.01396847 10.05139985 0.02953836 12.2482605 0.04519653 C13.76997696 0.04892599 15.29169581 0.05177328 16.81341553 0.05377197 C20.82150891 0.0614138 24.8294577 0.0810669 28.8374939 0.10317993 C32.92621911 0.12362659 37.01496766 0.13277116 41.10372925 0.14285278 C49.12853524 0.16431236 57.15322364 0.19845483 65.177948 0.24050903 C66.43982656 4.02614473 66.19452597 7.47733352 66.05685425 11.40847778 C66.02143776 12.60069695 66.02143776 12.60069695 65.98530579 13.81700134 C65.90876699 16.35419002 65.82470072 18.89106593 65.740448 21.42800903 C65.6872175 23.14869688 65.63447717 24.86939997 65.58224487 26.59011841 C65.45316511 30.80711314 65.31733408 35.02384289 65.177948 39.24050903 C64.847948 39.24050903 64.517948 39.24050903 64.177948 39.24050903 C64.177948 27.03050903 64.177948 14.82050903 64.177948 2.24050903 C42.067948 2.24050903 19.957948 2.24050903 -2.822052 2.24050903 C-2.822052 14.78050903 -2.822052 27.32050903 -2.822052 40.24050903 C-1.502052 40.24050903 -0.182052 40.24050903 1.177948 40.24050903 C1.177948 32.98050903 1.177948 25.72050903 1.177948 18.24050903 C4.147948 18.24050903 7.117948 18.24050903 10.177948 18.24050903 C10.177948 25.50050903 10.177948 32.76050903 10.177948 40.24050903 C11.497948 40.57050903 12.817948 40.90050903 14.177948 41.24050903 C11.19872206 41.26734891 8.21973505 41.2872694 5.240448 41.30300903 C4.39031128 41.31138794 3.54017456 41.31976685 2.66427612 41.32839966 C1.8553894 41.33162231 1.04650269 41.33484497 0.21310425 41.33816528 C-0.5357605 41.3434021 -1.28462524 41.34863892 -2.05618286 41.35403442 C-3.822052 41.24050903 -3.822052 41.24050903 -4.822052 40.24050903 C-4.9355035 37.45227166 -4.98623463 34.68973559 -4.99002075 31.90066528 C-4.99334915 31.06337387 -4.99667755 30.22608246 -5.00010681 29.36341858 C-5.00517957 27.58881176 -5.00751503 25.81419536 -5.00735474 24.0395813 C-5.00953998 21.31798647 -5.02768833 18.59679761 -5.04666138 15.87527466 C-5.04959542 14.15457293 -5.05158014 12.43386926 -5.05252075 10.71316528 C-5.05970627 9.8954213 -5.06689178 9.07767731 -5.07429504 8.2351532 C-5.04258919 0.42975404 -5.04258919 0.42975404 0 0 Z " fill="#252523" transform="translate(261.8220520019531,233.75949096679688)"/>
<path d="M0 0 C2.97 0 5.94 0 9 0 C9 9.24 9 18.48 9 28 C10.32 28 11.64 28 13 28 C13 20.74 13 13.48 13 6 C15.97 6 18.94 6 22 6 C21.67 13.26 21.34 20.52 21 28 C20.67 28 20.34 28 20 28 C20 21.4 20 14.8 20 8 C18.02 8 16.04 8 14 8 C14 14.6 14 21.2 14 28 C15.65 28 17.3 28 19 28 C19 28.33 19 28.66 19 29 C11.08 29 3.16 29 -5 29 C-5 28.67 -5 28.34 -5 28 C-3.35 28 -1.7 28 0 28 C0 18.76 0 9.52 0 0 Z " fill="#120D05" transform="translate(288,246)"/>
<path d="M0 0 C3.8125 1.125 3.8125 1.125 5.03515625 2.82421875 C5.99655454 5.66976445 6.07764188 8.0606216 6.0625 11.0625 C6.06765625 12.08214844 6.0728125 13.10179687 6.078125 14.15234375 C5.80231001 17.23903797 5.24324325 19.38274211 3.8125 22.125 C0.32125983 24.45249345 -1.07972251 24.62799316 -5.1875 24.125 C-8.23348734 21.87361805 -9.09529433 20.65279799 -9.75390625 16.8828125 C-9.7420435 5.8504556 -9.7420435 5.8504556 -7.1875 2.1875 C-4.12255966 0.08035352 -3.49677007 -0.22292705 0 0 Z " fill="#C26BD9" transform="translate(374.1875,345.875)"/>
<path d="M0 0 C0.97585304 -0.00525696 0.97585304 -0.00525696 1.97142029 -0.01062012 C4.12623705 -0.01943723 6.28072666 -0.01358856 8.43554688 -0.00683594 C9.93005435 -0.0081826 11.42456141 -0.01012314 12.91906738 -0.01263428 C16.0530209 -0.0155855 19.18686049 -0.01128801 22.32080078 -0.00195312 C26.34279701 0.0094415 30.36452633 0.00288201 34.38651276 -0.00909805 C37.47310404 -0.01631674 40.5596318 -0.0140287 43.64622498 -0.00884247 C45.12943045 -0.00750599 46.61264166 -0.00915363 48.09584045 -0.01380157 C50.16691419 -0.01886705 52.23755254 -0.01115678 54.30859375 0 C55.48836792 0.00159119 56.66814209 0.00318237 57.88366699 0.00482178 C60.65429688 0.25878906 60.65429688 0.25878906 62.65429688 2.25878906 C62.90429688 5.75878906 62.90429688 5.75878906 62.65429688 9.25878906 C59.87337802 12.03970792 58.20344462 11.51232506 54.30859375 11.51757812 C53.65802505 11.52108276 53.00745636 11.5245874 52.33717346 11.52819824 C50.1823567 11.53701536 48.02786709 11.53116669 45.87304688 11.52441406 C44.3785394 11.52576072 42.88403234 11.52770126 41.38952637 11.5302124 C38.25557285 11.53316363 35.12173326 11.52886614 31.98779297 11.51953125 C27.96579674 11.50813663 23.94406742 11.51469612 19.92208099 11.52667618 C16.83548971 11.53389486 13.74896195 11.53160683 10.66236877 11.52642059 C9.1791633 11.52508412 7.69595209 11.52673175 6.2127533 11.5313797 C4.14167956 11.53644518 2.07104121 11.5287349 0 11.51757812 C-1.17977417 11.51598694 -2.35954834 11.51439575 -3.57507324 11.51275635 C-6.34570312 11.25878906 -6.34570312 11.25878906 -8.34570312 9.25878906 C-8.59570312 5.75878906 -8.59570312 5.75878906 -8.34570312 2.25878906 C-5.56478427 -0.52212979 -3.89485087 0.00525307 0 0 Z M-6.34570312 2.25878906 C-6.34570312 4.23878906 -6.34570312 6.21878906 -6.34570312 8.25878906 C-5.27137254 9.55779219 -5.27137254 9.55779219 -2.71983337 9.37904358 C-1.54957108 9.37682297 -0.37930878 9.37460236 0.82641602 9.37231445 C1.4702977 9.37246048 2.11417938 9.37260651 2.77757263 9.37275696 C4.9148999 9.37205791 7.052141 9.36426597 9.18945312 9.35644531 C10.66775973 9.3545811 12.14606695 9.35315721 13.62437439 9.35215759 C17.5222849 9.34833265 21.42015836 9.33850258 25.3180542 9.32745361 C29.2927602 9.31723898 33.26747217 9.31265986 37.2421875 9.30761719 C45.04624088 9.29688028 52.85026369 9.27980415 60.65429688 9.25878906 C60.65429688 6.94878906 60.65429688 4.63878906 60.65429688 2.25878906 C38.54429687 2.25878906 16.43429687 2.25878906 -6.34570312 2.25878906 Z " fill="#151513" transform="translate(265.345703125,208.7412109375)"/>
<path d="M0 0 C29.04 0 58.08 0 88 0 C87.67 0.66 87.34 1.32 87 2 C58.95 2 30.9 2 2 2 C2 39.29 2 76.58 2 115 C1.67 115 1.34 115 1 115 C0.67 77.05 0.34 39.1 0 0 Z M-2 8 C0 9 0 9 0 9 Z " fill="#2E2930" transform="translate(248,196)"/>
<path d="M0 0 C3.3 0 6.6 0 10 0 C10 5.94 10 11.88 10 18 C30.295 18.495 30.295 18.495 51 19 C51 19.33 51 19.66 51 20 C28.89 20 6.78 20 -16 20 C-16 19.67 -16 19.34 -16 19 C-10.72 18.67 -5.44 18.34 0 18 C0 12.06 0 6.12 0 0 Z M1 16 C2 18 2 18 2 18 Z " fill="#494944" transform="translate(275,256)"/>
<path d="M0 0 C1.98 0 3.96 0 6 0 C6 10.23 6 20.46 6 31 C4.02 31 2.04 31 0 31 C0 20.77 0 10.54 0 0 Z " fill="#D6993B" transform="translate(315,243)"/>
<path d="M0 0 C1.98 0 3.96 0 6 0 C6 8.58 6 17.16 6 26 C4.02 26 2.04 26 0 26 C0 17.42 0 8.84 0 0 Z " fill="#CF9339" transform="translate(290,248)"/>
<path d="M0 0 C1.98 0 3.96 0 6 0 C6 6.6 6 13.2 6 20 C4.02 20 2.04 20 0 20 C0 13.4 0 6.8 0 0 Z " fill="#CE9339" transform="translate(302,254)"/>
<path d="M0 0 C1.98 0 3.96 0 6 0 C6 6.6 6 13.2 6 20 C4.02 20 2.04 20 0 20 C0 13.4 0 6.8 0 0 Z " fill="#D3973A" transform="translate(264,254)"/>
<path d="M0 0 C1.39935013 2.79870027 1.25265405 4.90498792 1 8 C-0.125 9.875 -0.125 9.875 -2 11 C-5.0625 11.375 -5.0625 11.375 -8 11 C-10.31282587 7.53076119 -10.42478586 6.07794425 -10 2 C-7.65446208 -2.27715738 -4.20919664 -1.01332512 0 0 Z " fill="#181106" transform="translate(282,405)"/>
<path d="M0 0 C3.19032288 0.1307373 3.19032288 0.1307373 6.19032288 2.1307373 C3.55032288 2.1307373 0.91032288 2.1307373 -1.80967712 2.1307373 C-1.80967712 4.4407373 -1.80967712 6.7507373 -1.80967712 9.1307373 C-2.13967712 9.1307373 -2.46967712 9.1307373 -2.80967712 9.1307373 C-2.80967712 6.8207373 -2.80967712 4.5107373 -2.80967712 2.1307373 C-28.87967712 2.1307373 -54.94967712 2.1307373 -81.80967712 2.1307373 C-81.80967712 1.8007373 -81.80967712 1.4707373 -81.80967712 1.1307373 C-71.76064192 0.99982102 -61.7116005 0.86939406 -51.66255093 0.73958588 C-46.99601368 0.67929082 -42.32947871 0.6188294 -37.66294861 0.5579834 C-33.15664225 0.49923272 -28.65033037 0.44092476 -24.14401436 0.38291931 C-22.42769734 0.36074987 -20.71138235 0.33842288 -18.9950695 0.31593323 C-16.58488861 0.28437882 -14.174701 0.25339259 -11.76451111 0.22253418 C-11.06032043 0.21318344 -10.35612976 0.2038327 -9.63059998 0.19419861 C-6.41776016 0.15360355 -3.21158662 0.11021254 0 0 Z " fill="#38280F" transform="translate(329.80967712402344,310.8692626953125)"/>
<path d="M0 0 C1.98 0 3.96 0 6 0 C6 5.61 6 11.22 6 17 C4.02 17 2.04 17 0 17 C0 11.39 0 5.78 0 0 Z " fill="#D2963A" transform="translate(277,257)"/>
<path d="M0 0 C2.97 0 5.94 0 9 0 C9 7.26 9 14.52 9 22 C10.32 22.33 11.64 22.66 13 23 C7.39 23 1.78 23 -4 23 C-2.68 22.67 -1.36 22.34 0 22 C0 14.74 0 7.48 0 0 Z M1 2 C1 8.6 1 15.2 1 22 C2.98 22 4.96 22 7 22 C7 15.4 7 8.8 7 2 C5.02 2 3.04 2 1 2 Z " fill="#100D07" transform="translate(263,252)"/>
<path d="M0 0 C3.375 -0.125 3.375 -0.125 7 0 C9 2 9 2 9.1953125 4.3828125 C9.17210937 5.28773438 9.14890625 6.19265625 9.125 7.125 C9.10695312 8.03507812 9.08890625 8.94515625 9.0703125 9.8828125 C9.04710937 10.58148438 9.02390625 11.28015625 9 12 C8.34 12 7.68 12 7 12 C6.71125 11.360625 6.4225 10.72125 6.125 10.0625 C5.17176549 7.84793921 5.17176549 7.84793921 3 7 C3 8.65 3 10.3 3 12 C2.01 12 1.02 12 0 12 C0 8.04 0 4.08 0 0 Z " fill="#171006" transform="translate(218,404)"/>
<path d="M0 0 C1.75206253 0.03330917 1.75206253 0.03330917 3.53952026 0.06729126 C4.18354797 0.07675278 4.82757568 0.08621429 5.49111938 0.09596252 C7.62326183 0.129684 9.75482789 0.17778578 11.88668823 0.22598267 C13.36355069 0.25214536 14.84042925 0.27741273 16.31732178 0.30181885 C20.20718753 0.36851358 24.0967151 0.44739647 27.98629761 0.52877808 C31.95426437 0.60965577 35.92242971 0.67906219 39.89059448 0.74942017 C47.67859551 0.88920449 55.46627496 1.04185909 63.25387573 1.20254517 C63.25387573 1.53254517 63.25387573 1.86254517 63.25387573 2.20254517 C41.47387573 2.20254517 19.69387573 2.20254517 -2.74612427 2.20254517 C-2.41612427 4.51254517 -2.08612427 6.82254517 -1.74612427 9.20254517 C-2.73612427 9.20254517 -3.72612427 9.20254517 -4.74612427 9.20254517 C-4.87112427 5.82754517 -4.87112427 5.82754517 -4.74612427 2.20254517 C-2.74612427 0.20254517 -2.74612427 0.20254517 0 0 Z " fill="#37270F" transform="translate(261.7461242675781,208.79745483398438)"/>
<path d="M0 0 C2.97 0 5.94 0 9 0 C8.67 0.66 8.34 1.32 8 2 C6.02 2 4.04 2 2 2 C2 10.58 2 19.16 2 28 C3.32 28.33 4.64 28.66 6 29 C2.37 29 -1.26 29 -5 29 C-5 28.67 -5 28.34 -5 28 C-3.35 28 -1.7 28 0 28 C0 18.76 0 9.52 0 0 Z " fill="#1E170D" transform="translate(288,246)"/>
<path d="M0 0 C3.5 0.125 3.5 0.125 4.5 1.125 C4.875 3.4375 4.875 3.4375 4.5 6.125 C2.25 8.4375 2.25 8.4375 -0.5 10.125 C-1.82 10.125 -3.14 10.125 -4.5 10.125 C-4.52689216 8.64593108 -4.54634621 7.16672517 -4.5625 5.6875 C-4.57410156 4.86378906 -4.58570313 4.04007812 -4.59765625 3.19140625 C-4.42921386 -0.37283479 -3.69396427 0.1319273 0 0 Z " fill="#937AEB" transform="translate(210.5,345.875)"/>
<path d="M0 0 C2.33294775 -0.04241723 4.66702567 -0.04092937 7 0 C8 1 8 1 8 4.875 C7.979375 5.57367188 7.95875 6.27234375 7.9375 6.9921875 C7.9105259 9.20917431 7.9105259 9.20917431 9 12 C8.01 12 7.02 12 6 12 C5.67 10.35 5.34 8.7 5 7 C4.01 7 3.02 7 2 7 C2 8.65 2 10.3 2 12 C1.34 12 0.68 12 0 12 C0 8.04 0 4.08 0 0 Z " fill="#100B04" transform="translate(293,404)"/>
<path d="M0 0 C3.375 -0.125 3.375 -0.125 7 0 C7.66 0.66 8.32 1.32 9 2 C8.625 4.625 8.625 4.625 8 7 C6.02 7 4.04 7 2 7 C2 8.65 2 10.3 2 12 C1.34 12 0.68 12 0 12 C0 8.04 0 4.08 0 0 Z " fill="#080502" transform="translate(254,404)"/>
<path d="M0 0 C1.2065625 0.0309375 1.2065625 0.0309375 2.4375 0.0625 C3.0975 1.3825 3.7575 2.7025 4.4375 4.0625 C2.4575 3.4025 0.4775 2.7425 -1.5625 2.0625 C-0.05586217 5.07577566 2.46916411 5.67306618 5.4375 7.0625 C4.5625 10.9375 4.5625 10.9375 3.4375 12.0625 C1.43791636 12.10330783 -0.56295254 12.10504356 -2.5625 12.0625 C-3.2225 10.7425 -3.8825 9.4225 -4.5625 8.0625 C-3.5725 8.0625 -2.5825 8.0625 -1.5625 8.0625 C-1.5625 8.7225 -1.5625 9.3825 -1.5625 10.0625 C-0.2425 10.0625 1.0775 10.0625 2.4375 10.0625 C2.4375 9.0725 2.4375 8.0825 2.4375 7.0625 C-0.5325 6.5675 -0.5325 6.5675 -3.5625 6.0625 C-3.605221 4.39638095 -3.60313832 2.72867115 -3.5625 1.0625 C-2.5625 0.0625 -2.5625 0.0625 0 0 Z " fill="#1E1508" transform="translate(332.5625,403.9375)"/>
<path d="M0 0 C2.64 0 5.28 0 8 0 C8 0.66 8 1.32 8 2 C6.02 2 4.04 2 2 2 C2 2.99 2 3.98 2 5 C3.65 5 5.3 5 7 5 C7 5.66 7 6.32 7 7 C5.35 7 3.7 7 2 7 C2 7.99 2 8.98 2 10 C3.98 10 5.96 10 8 10 C8 10.66 8 11.32 8 12 C5.36 12 2.72 12 0 12 C0 8.04 0 4.08 0 0 Z " fill="#0D0903" transform="translate(237,404)"/>
<path d="M0 0 C2.125 0.375 2.125 0.375 4 1 C4.625 3.375 4.625 3.375 5 6 C4.34 6.66 3.68 7.32 3 8 C1.68 8 0.36 8 -1 8 C-1.625 5.125 -1.625 5.125 -2 2 C-1.34 1.34 -0.68 0.68 0 0 Z " fill="#D4983A" transform="translate(276,406)"/>
<path d="M0 0 C3.3 0 6.6 0 10 0 C10 0.66 10 1.32 10 2 C8.68 2 7.36 2 6 2 C6 5.3 6 8.6 6 12 C5.34 12 4.68 12 4 12 C4 8.7 4 5.4 4 2 C2.68 2 1.36 2 0 2 C0 1.34 0 0.68 0 0 Z " fill="#070502" transform="translate(310,404)"/>
<path d="M0 0 C2.31 0 4.62 0 7 0 C7 1.65 7 3.3 7 5 C5.35 5 3.7 5 2 5 C1.67 7.31 1.34 9.62 1 12 C0.67 12 0.34 12 0 12 C0 8.04 0 4.08 0 0 Z " fill="#5A4018" transform="translate(218,404)"/>
<path d="M0 0 C2.31 0 4.62 0 7 0 C6.34 1.98 5.68 3.96 5 6 C3.35 6 1.7 6 0 6 C0 4.02 0 2.04 0 0 Z " fill="#523A16" transform="translate(293,404)"/>
<path d="M0 0 C0 1.98 0 3.96 0 6 C-2.35171131 5.40138258 -4.6859378 4.73075648 -7 4 C-7.33 3.34 -7.66 2.68 -8 2 C-5.09399739 0.74335022 -3.20395416 0 0 0 Z " fill="#DD9F51" transform="translate(176,408)"/>
<path d="M0 0 C0.78375 0.185625 1.5675 0.37125 2.375 0.5625 C4.97089775 1.25962266 4.97089775 1.25962266 7 0 C6.67 1.65 6.34 3.3 6 5 C3.03 4.505 3.03 4.505 0 4 C0 2.68 0 1.36 0 0 Z " fill="#6E4E1E" transform="translate(256,406)"/>
<path d="M0 0 C2.31 0.33 4.62 0.66 7 1 C7.33 3.31 7.66 5.62 8 8 C7.34 8 6.68 8 6 8 C5.7525 7.195625 5.505 6.39125 5.25 5.5625 C4.27761141 2.828919 4.27761141 2.828919 1.875 2.1875 C1.25625 2.125625 0.6375 2.06375 0 2 C0 1.34 0 0.68 0 0 Z " fill="#0E0A03" transform="translate(275,404)"/>
<path d="M0 0 C6.625 -0.25 6.625 -0.25 10 2 C7.36 2 4.72 2 2 2 C2 4.31 2 6.62 2 9 C1.67 9 1.34 9 1 9 C0.67 6.03 0.34 3.06 0 0 Z " fill="#271731" transform="translate(326,311)"/>
<path d="M0 0 C0.66 0.33 1.32 0.66 2 1 C2 3.31 2 5.62 2 8 C1.01 8 0.02 8 -1 8 C-1.04241723 5.66705225 -1.04092937 3.33297433 -1 1 C-0.67 0.67 -0.34 0.34 0 0 Z " fill="#2E2C28" transform="translate(258,210)"/>
</svg>
